#!OML:ASF F:\VICON\USERDATA\INSTALL\rory3\rory3.ASF
:FULLY-SPECIFIED
:DEGREES
51
root 0.22720587252615393 18.16006539214229 7.728283854476915 -3.3439593268027963 -0.9203760866624717 -4.346313784470322
lfemur -6.365713682391696 -1.5396261401588482 -15.774668868110044
ltibia 63.82323527752255
lfoot -1.6357284416142717 -6.23975095213593
ltoes -13.200647520581628
rfemur -14.816020183726186 6.219065100550727 30.135106253807308
rtibia 32.297668903496884
rfoot -9.351341808480901 -6.04736745015295
rtoes 9.52622097767751
lowerback 10.43836609828126 -0.5674225473708081 2.3671375726528945
upperback 0.4163524937904584 -0.37957548361078963 2.785792417163135
thorax -5.215229499477887 -0.2322270598270459 1.7547855687222988
lowerneck -15.459749588339761 -2.9343547246458175 -2.025980388898096
upperneck 24.132560715539338 -3.5610492972213703 0.14875409184639343
head 10.441160523092647 -1.7888321769444706 -0.07532403545138566
lclavicle -1.3901274428198902e-15 -1.846237309362488e-15
lhumerus -30.47871812061025 3.1446239011814474 81.1303196253483
lradius 28.147934710561223
lwrist 5.042940141702804
lhand -27.36181503950809 24.43107481497991
lfingers 7.125019999999999
lthumb -0.5533740682878596 54.378462289374106
rclavicle -1.3866415324018692e-15 -1.8429649039372763e-15
rhumerus -30.633089741974242 -24.38050365961363 -72.40731594082581
rradius 19.64805373668978
rwrist 11.233693113211931
rhand -17.344056480971574 22.588435078475875
rfingers 7.125019999999999
rthumb 8.770355608670759 -7.461909847844247
52
root 0.1828289168226253 18.186499788429398 8.30613186586095 -3.2959636504435474 -1.6846956870220213 -5.133917314132718
lfemur -11.413132052612866 -0.06270207080760315 -14.900107759258347
ltibia 67.67483422082188
lfoot -3.867067416644924 -4.900182712727636
ltoes -12.628355849806617
rfemur -12.257990827483834 6.563770668563964 31.44926178031985
rtibia 31.982574963638776
rfoot -10.194146193692971 -6.360383205947959
rtoes 8.882826679334197
lowerback 10.40605675044212 0.026700076052096844 3.2499277981401122
upperback 0.48177398447607667 0.49296850655569474 2.5865879202203095
thorax -5.147874675164542 0.1872217475204368 0.9683783779903417
lowerneck -15.33443916079612 -3.021450410244727 -1.9575300668835238
upperneck 24.157918891386714 -3.7566436370965133 0.2548892204868972
head 10.380883522046222 -1.8584282054278758 -0.07065360244285883
lclavicle -1.388858595137152e-15 -1.84529771442302e-15
lhumerus -30.980753200666307 4.350018890295979 80.95947555963268
lradius 27.283579557663717
lwrist 4.426906793205966
lhand -27.006569176309636 24.38277612908613
lfingers 7.125019999999999
lthumb -0.25100209112159466 54.35077857121751
rclavicle -1.3867532913345421e-15 -1.8430688461318923e-15
rhumerus -29.038690776893844 -21.900060534789368 -74.54257186737208
rradius 21.047930014772312
rwrist 8.83714919808323
rhand -17.467396049851303 21.733190769471758
rfingers 7.125019999999999
rthumb 8.629466908150272 -8.32295130162065
53
root 0.140682616279454 18.206874046053102 8.989451118446981 -3.0874441679817846 -2.7029963431333868 -5.680709284228781
lfemur -16.543678277213917 1.1672258013183092 -14.434747264316421
ltibia 68.90652030699286
lfoot -5.319764023188581 -3.8766284887634717
ltoes -12.710127044215756
rfemur -9.629107517869366 6.74179262766197 32.456211345302485
rtibia 31.739153330814634
rfoot -10.849698027484951 -6.559927516699394
rtoes 8.699718790382562
lowerback 10.48437922977891 0.6474761398581138 4.083054573612104
upperback 0.43167942862730424 1.3998164170930798 2.3713913610276864
thorax -5.2034204551195185 0.6173546289479469 0.06174434878251267
lowerneck -15.306614716022978 -3.0675247730853 -1.8541375374395979
upperneck 24.09609236444212 -3.865906835170793 0.24107313688002452
head 10.302180931561614 -1.897895838189792 -0.10101487106213528
lclavicle -1.3894920501617262e-15 -1.8457786234115107e-15
lhumerus -31.447160592863188 5.476017877691403 80.79867457317707
lradius 26.443318859058422
lwrist 3.5946080615723464
lhand -26.930067122902326 24.020615415047846
lfingers 7.125019999999999
lthumb -0.24559340260299334 54.07279901446173
rclavicle -1.3866099176267428e-15 -1.8429362990811583e-15
rhumerus -27.55373198229536 -19.393789175100057 -76.4089808384771
rradius 22.724356148453346
rwrist 6.17912042168449
rhand -17.74995913508053 20.91876411717617
rfingers 7.125019999999999
rthumb 8.3643966172538 -8.974970795322976
54
root 0.13281423329659608 18.149835178274916 9.811473374919515 -2.830135379128532 -3.0880104122968923 -5.763287112122563
lfemur -20.767859249505666 1.5840275832264163 -14.286595048243477
ltibia 67.59369200789858
lfoot -8.086357614418587 -2.9353045825346777
ltoes -13.085137174836103
rfemur -8.012753496108212 6.018355215700759 32.65682761309851
rtibia 32.507273300061804
rfoot -11.419811999792381 -6.680220980107512
rtoes 8.734764826140882
lowerback 10.655514802330174 1.0388195332971786 4.409457966047292
upperback 0.34897473405875795 1.9490434909263448 2.148088482607008
thorax -5.301650674176453 0.8680172009160041 -0.732212650184868
lowerneck -15.413535671702892 -3.0641488420190948 -1.704619882899108
upperneck 23.90982746333677 -3.8742545326612006 0.0711632403844639
head 10.205224163220734 -1.9013198079417295 -0.1791668535961101
lclavicle -1.389369864839666e-15 -1.8456732252555563e-15
lhumerus -31.809481466089622 6.5177949689547034 80.6656820599096
lradius 25.608553505537323
lwrist 2.9486232393149563
lhand -27.013253303933702 23.49278727897726
lfingers 7.125019999999999
lthumb -0.43715268731770884 53.5488582996388
rclavicle -1.385872970617775e-15 -1.8422521560975165e-15
rhumerus -25.977256584160845 -16.993919299159618 -77.71137132705516
rradius 24.27494854341777
rwrist 3.8065751100151664
rhand -18.15754006622925 20.732198560314057
rfingers 7.125019999999999
rthumb 8.03030547209506 -9.017824031461993
55
root 0.12499759562263768 18.057755180953684 10.674840963550352 -2.663770225054816 -3.4678636302388197 -6.167643438463493
lfemur -24.004593624094838 1.6420726676180548 -13.745230612626443
ltibia 63.972203477183314
lfoot -9.395229651574414 -1.9535828609419408
ltoes -11.514876676553667
rfemur -6.503968606519246 5.33662784370449 33.049117033167846
rtibia 33.05186523572166
rfoot -11.372700822436194 -6.821687821751824
rtoes 9.017441932627653
lowerback 11.080554845662848 1.3611022009465985 4.964393568579344
upperback 0.21166208038291223 2.429474764286626 2.035589504245329
thorax -5.447078544715557 1.0813539370652347 -1.4142017239694205
lowerneck -15.56929771440398 -3.0453253816038757 -1.5984893111238794
upperneck 23.596458080230562 -3.837954206728875 -0.12062046755272254
head 10.082906094087052 -1.8882230195346272 -0.26079611443010464
lclavicle -1.3856194505474185e-15 -1.8429769414027315e-15
lhumerus -32.41231307125996 7.228759641830257 80.43298278523622
lradius 24.947548548779036
lwrist 2.739093962804332
lhand -27.016582234322165 23.16009365237392
lfingers 7.125019999999999
lthumb -0.528087289498496 53.1702636135005
rclavicle -1.38550602732393e-15 -1.8419116933271065e-15
rhumerus -24.580618408623806 -15.154485081832206 -78.66842733260316
rradius 25.810843115977555
rwrist 1.7167138783206193
rhand -18.53083628194982 21.19606691836778
rfingers 7.125019999999999
rthumb 7.734264100894479 -8.50758321916872
